<mxfile host="65bd71144e" modified="2021-02-25T01:38:42.255Z" agent="5.0 (Macintosh; Intel Mac OS X 10_14_6) AppleWebKit/537.36 (KHTML, like Gecko) Code/1.53.2 Chrome/87.0.4280.141 Electron/11.2.1 Safari/537.36" etag="AnyAVZI6lVij81_iqqj0" version="14.2.4" type="embed">
    <diagram id="zVaUnb40eR5KeJ1UaK4p" name="Page-1">
        <mxGraphModel dx="624" dy="1478" grid="1" gridSize="10" guides="1" tooltips="1" connect="1" arrows="1" fold="1" page="1" pageScale="1" pageWidth="850" pageHeight="1100" math="0" shadow="0">
            <root>
                <mxCell id="0"/>
                <mxCell id="1" parent="0"/>
                <mxCell id="1vqe1WkpdczpjH7pua3z-33" style="edgeStyle=orthogonalEdgeStyle;rounded=0;orthogonalLoop=1;jettySize=auto;html=1;exitX=1;exitY=0.75;exitDx=0;exitDy=0;entryX=0;entryY=0.5;entryDx=0;entryDy=0;" parent="1" source="1vqe1WkpdczpjH7pua3z-15" target="1vqe1WkpdczpjH7pua3z-18" edge="1">
                    <mxGeometry relative="1" as="geometry"/>
                </mxCell>
                <mxCell id="1vqe1WkpdczpjH7pua3z-47" value="/cms/api/v1" style="edgeLabel;html=1;align=center;verticalAlign=middle;resizable=0;points=[];" parent="1vqe1WkpdczpjH7pua3z-33" vertex="1" connectable="0">
                    <mxGeometry x="-0.5487" y="-1" relative="1" as="geometry">
                        <mxPoint as="offset"/>
                    </mxGeometry>
                </mxCell>
                <mxCell id="1vqe1WkpdczpjH7pua3z-44" style="edgeStyle=orthogonalEdgeStyle;rounded=0;orthogonalLoop=1;jettySize=auto;html=1;exitX=0.5;exitY=1;exitDx=0;exitDy=0;entryX=0;entryY=0.5;entryDx=0;entryDy=0;" parent="1" source="1vqe1WkpdczpjH7pua3z-15" target="1vqe1WkpdczpjH7pua3z-34" edge="1">
                    <mxGeometry relative="1" as="geometry"/>
                </mxCell>
                <mxCell id="1vqe1WkpdczpjH7pua3z-45" value="/" style="edgeLabel;html=1;align=center;verticalAlign=middle;resizable=0;points=[];" parent="1vqe1WkpdczpjH7pua3z-44" vertex="1" connectable="0">
                    <mxGeometry x="-0.708" relative="1" as="geometry">
                        <mxPoint as="offset"/>
                    </mxGeometry>
                </mxCell>
                <mxCell id="1vqe1WkpdczpjH7pua3z-46" value="/ web app" style="edgeLabel;html=1;align=center;verticalAlign=middle;resizable=0;points=[];" parent="1vqe1WkpdczpjH7pua3z-44" vertex="1" connectable="0">
                    <mxGeometry x="-0.6874" y="-2" relative="1" as="geometry">
                        <mxPoint as="offset"/>
                    </mxGeometry>
                </mxCell>
                <mxCell id="1vqe1WkpdczpjH7pua3z-50" style="edgeStyle=orthogonalEdgeStyle;rounded=0;orthogonalLoop=1;jettySize=auto;html=1;exitX=1;exitY=0.5;exitDx=0;exitDy=0;entryX=0;entryY=0.5;entryDx=0;entryDy=0;" parent="1" source="1vqe1WkpdczpjH7pua3z-15" target="1vqe1WkpdczpjH7pua3z-17" edge="1">
                    <mxGeometry relative="1" as="geometry"/>
                </mxCell>
                <mxCell id="1vqe1WkpdczpjH7pua3z-15" value="nginx" style="rounded=0;whiteSpace=wrap;html=1;" parent="1" vertex="1">
                    <mxGeometry x="390" y="90" width="80" height="370" as="geometry"/>
                </mxCell>
                <mxCell id="1vqe1WkpdczpjH7pua3z-24" style="edgeStyle=orthogonalEdgeStyle;rounded=0;orthogonalLoop=1;jettySize=auto;html=1;exitX=1;exitY=0.5;exitDx=0;exitDy=0;entryX=0.482;entryY=-0.048;entryDx=0;entryDy=0;entryPerimeter=0;" parent="1" source="1vqe1WkpdczpjH7pua3z-16" target="1vqe1WkpdczpjH7pua3z-21" edge="1">
                    <mxGeometry relative="1" as="geometry"/>
                </mxCell>
                <mxCell id="1vqe1WkpdczpjH7pua3z-27" style="edgeStyle=orthogonalEdgeStyle;rounded=0;orthogonalLoop=1;jettySize=auto;html=1;exitX=1;exitY=0.25;exitDx=0;exitDy=0;entryX=0.5;entryY=0;entryDx=0;entryDy=0;entryPerimeter=0;" parent="1" source="1vqe1WkpdczpjH7pua3z-16" target="1vqe1WkpdczpjH7pua3z-25" edge="1">
                    <mxGeometry relative="1" as="geometry"/>
                </mxCell>
                <mxCell id="1vqe1WkpdczpjH7pua3z-52" style="edgeStyle=orthogonalEdgeStyle;rounded=0;orthogonalLoop=1;jettySize=auto;html=1;exitX=0.75;exitY=1;exitDx=0;exitDy=0;entryX=0.75;entryY=0;entryDx=0;entryDy=0;" parent="1" source="1vqe1WkpdczpjH7pua3z-16" target="1vqe1WkpdczpjH7pua3z-17" edge="1">
                    <mxGeometry relative="1" as="geometry"/>
                </mxCell>
                <mxCell id="1vqe1WkpdczpjH7pua3z-58" style="edgeStyle=orthogonalEdgeStyle;rounded=0;orthogonalLoop=1;jettySize=auto;html=1;exitX=0.5;exitY=0;exitDx=0;exitDy=0;entryX=0;entryY=0.75;entryDx=0;entryDy=0;" parent="1" source="1vqe1WkpdczpjH7pua3z-16" target="1vqe1WkpdczpjH7pua3z-57" edge="1">
                    <mxGeometry relative="1" as="geometry"/>
                </mxCell>
                <mxCell id="1vqe1WkpdczpjH7pua3z-16" value="Gatekeeper Svc" style="rounded=0;whiteSpace=wrap;html=1;" parent="1" vertex="1">
                    <mxGeometry x="600" y="90" width="120" height="60" as="geometry"/>
                </mxCell>
                <mxCell id="1vqe1WkpdczpjH7pua3z-28" style="edgeStyle=orthogonalEdgeStyle;rounded=0;orthogonalLoop=1;jettySize=auto;html=1;exitX=1;exitY=0.5;exitDx=0;exitDy=0;entryX=-0.081;entryY=0.424;entryDx=0;entryDy=0;entryPerimeter=0;" parent="1" source="1vqe1WkpdczpjH7pua3z-17" target="1vqe1WkpdczpjH7pua3z-21" edge="1">
                    <mxGeometry relative="1" as="geometry"/>
                </mxCell>
                <mxCell id="1vqe1WkpdczpjH7pua3z-32" style="edgeStyle=orthogonalEdgeStyle;rounded=0;orthogonalLoop=1;jettySize=auto;html=1;exitX=0.5;exitY=1;exitDx=0;exitDy=0;entryX=0.5;entryY=0;entryDx=0;entryDy=0;" parent="1" source="1vqe1WkpdczpjH7pua3z-17" target="1vqe1WkpdczpjH7pua3z-18" edge="1">
                    <mxGeometry relative="1" as="geometry"/>
                </mxCell>
                <mxCell id="1vqe1WkpdczpjH7pua3z-51" style="edgeStyle=orthogonalEdgeStyle;rounded=0;orthogonalLoop=1;jettySize=auto;html=1;exitX=0.5;exitY=0;exitDx=0;exitDy=0;entryX=0.5;entryY=1;entryDx=0;entryDy=0;" parent="1" source="1vqe1WkpdczpjH7pua3z-17" target="1vqe1WkpdczpjH7pua3z-16" edge="1">
                    <mxGeometry relative="1" as="geometry"/>
                </mxCell>
                <mxCell id="1vqe1WkpdczpjH7pua3z-17" value="API Services" style="rounded=0;whiteSpace=wrap;html=1;" parent="1" vertex="1">
                    <mxGeometry x="600" y="220" width="120" height="60" as="geometry"/>
                </mxCell>
                <mxCell id="1vqe1WkpdczpjH7pua3z-29" style="edgeStyle=orthogonalEdgeStyle;rounded=0;orthogonalLoop=1;jettySize=auto;html=1;exitX=1;exitY=0.5;exitDx=0;exitDy=0;" parent="1" source="1vqe1WkpdczpjH7pua3z-18" target="1vqe1WkpdczpjH7pua3z-20" edge="1">
                    <mxGeometry relative="1" as="geometry"/>
                </mxCell>
                <mxCell id="1vqe1WkpdczpjH7pua3z-18" value="CMS APIs" style="rounded=0;whiteSpace=wrap;html=1;" parent="1" vertex="1">
                    <mxGeometry x="600" y="370" width="120" height="60" as="geometry"/>
                </mxCell>
                <mxCell id="1vqe1WkpdczpjH7pua3z-20" value="" style="outlineConnect=0;fontColor=#232F3E;gradientColor=#4D72F3;gradientDirection=north;fillColor=#3334B9;strokeColor=#ffffff;dashed=0;verticalLabelPosition=bottom;verticalAlign=top;align=center;html=1;fontSize=12;fontStyle=0;aspect=fixed;shape=mxgraph.aws4.resourceIcon;resIcon=mxgraph.aws4.documentdb_with_mongodb_compatibility;" parent="1" vertex="1">
                    <mxGeometry x="780" y="361" width="78" height="78" as="geometry"/>
                </mxCell>
                <mxCell id="1vqe1WkpdczpjH7pua3z-21" value="" style="aspect=fixed;html=1;points=[];align=center;image;fontSize=12;image=img/lib/mscae/Azure_Database_for_MySQL_servers.svg;" parent="1" vertex="1">
                    <mxGeometry x="790" y="220" width="53.2" height="70" as="geometry"/>
                </mxCell>
                <mxCell id="1vqe1WkpdczpjH7pua3z-25" value="" style="outlineConnect=0;dashed=0;verticalLabelPosition=bottom;verticalAlign=top;align=center;html=1;shape=mxgraph.aws3.redis;fillColor=#2E73B8;gradientColor=none;" parent="1" vertex="1">
                    <mxGeometry x="858" y="150" width="60" height="63" as="geometry"/>
                </mxCell>
                <mxCell id="1vqe1WkpdczpjH7pua3z-56" style="edgeStyle=orthogonalEdgeStyle;rounded=0;orthogonalLoop=1;jettySize=auto;html=1;exitX=0.5;exitY=1;exitDx=0;exitDy=0;" parent="1" source="1vqe1WkpdczpjH7pua3z-34" edge="1">
                    <mxGeometry relative="1" as="geometry">
                        <mxPoint x="660" y="710" as="targetPoint"/>
                    </mxGeometry>
                </mxCell>
                <mxCell id="1vqe1WkpdczpjH7pua3z-34" value="" style="shape=image;html=1;verticalAlign=top;verticalLabelPosition=bottom;labelBackgroundColor=#ffffff;imageAspect=0;aspect=fixed;image=https://cdn4.iconfinder.com/data/icons/logos-and-brands/512/367_Vuejs_logo-128.png" parent="1" vertex="1">
                    <mxGeometry x="596" y="520" width="128" height="128" as="geometry"/>
                </mxCell>
                <mxCell id="1vqe1WkpdczpjH7pua3z-36" value="" style="aspect=fixed;html=1;points=[];align=center;image;fontSize=12;image=img/lib/mscae/Docker.svg;" parent="1" vertex="1">
                    <mxGeometry x="720" y="550" width="50" height="41" as="geometry"/>
                </mxCell>
                <mxCell id="1vqe1WkpdczpjH7pua3z-37" value="" style="aspect=fixed;html=1;points=[];align=center;image;fontSize=12;image=img/lib/mscae/Docker.svg;" parent="1" vertex="1">
                    <mxGeometry x="410" y="109" width="50" height="41" as="geometry"/>
                </mxCell>
                <mxCell id="1vqe1WkpdczpjH7pua3z-38" value="" style="aspect=fixed;html=1;points=[];align=center;image;fontSize=12;image=img/lib/mscae/Docker.svg;" parent="1" vertex="1">
                    <mxGeometry x="570" y="60" width="50" height="41" as="geometry"/>
                </mxCell>
                <mxCell id="1vqe1WkpdczpjH7pua3z-39" value="" style="aspect=fixed;html=1;points=[];align=center;image;fontSize=12;image=img/lib/mscae/Docker.svg;" parent="1" vertex="1">
                    <mxGeometry x="570" y="202" width="50" height="41" as="geometry"/>
                </mxCell>
                <mxCell id="1vqe1WkpdczpjH7pua3z-40" value="" style="aspect=fixed;html=1;points=[];align=center;image;fontSize=12;image=img/lib/mscae/Docker.svg;" parent="1" vertex="1">
                    <mxGeometry x="580" y="350" width="50" height="41" as="geometry"/>
                </mxCell>
                <mxCell id="1vqe1WkpdczpjH7pua3z-41" value="" style="aspect=fixed;html=1;points=[];align=center;image;fontSize=12;image=img/lib/mscae/Docker.svg;" parent="1" vertex="1">
                    <mxGeometry x="858" y="340" width="50" height="41" as="geometry"/>
                </mxCell>
                <mxCell id="1vqe1WkpdczpjH7pua3z-42" value="" style="aspect=fixed;html=1;points=[];align=center;image;fontSize=12;image=img/lib/mscae/Docker.svg;" parent="1" vertex="1">
                    <mxGeometry x="858" y="229.5" width="50" height="41" as="geometry"/>
                </mxCell>
                <mxCell id="1vqe1WkpdczpjH7pua3z-43" value="" style="aspect=fixed;html=1;points=[];align=center;image;fontSize=12;image=img/lib/mscae/Docker.svg;" parent="1" vertex="1">
                    <mxGeometry x="900" y="90" width="50" height="41" as="geometry"/>
                </mxCell>
                <mxCell id="1vqe1WkpdczpjH7pua3z-49" style="edgeStyle=orthogonalEdgeStyle;rounded=0;orthogonalLoop=1;jettySize=auto;html=1;exitX=0.87;exitY=0.65;exitDx=0;exitDy=0;exitPerimeter=0;entryX=0;entryY=0.5;entryDx=0;entryDy=0;" parent="1" source="1vqe1WkpdczpjH7pua3z-48" target="1vqe1WkpdczpjH7pua3z-15" edge="1">
                    <mxGeometry relative="1" as="geometry"/>
                </mxCell>
                <mxCell id="1vqe1WkpdczpjH7pua3z-48" value="" style="verticalLabelPosition=bottom;html=1;verticalAlign=top;align=center;strokeColor=none;fillColor=#00BEF2;shape=mxgraph.azure.user;" parent="1" vertex="1">
                    <mxGeometry x="230" y="243" width="47.5" height="50" as="geometry"/>
                </mxCell>
                <mxCell id="1vqe1WkpdczpjH7pua3z-53" value="" style="outlineConnect=0;dashed=0;verticalLabelPosition=bottom;verticalAlign=top;align=center;html=1;shape=mxgraph.aws3.android;fillColor=#8CC64F;gradientColor=none;" parent="1" vertex="1">
                    <mxGeometry x="550" y="118" width="40" height="43" as="geometry"/>
                </mxCell>
                <mxCell id="1vqe1WkpdczpjH7pua3z-54" value="" style="outlineConnect=0;dashed=0;verticalLabelPosition=bottom;verticalAlign=top;align=center;html=1;shape=mxgraph.aws3.android;fillColor=#8CC64F;gradientColor=none;" parent="1" vertex="1">
                    <mxGeometry x="550" y="253.5" width="40" height="43" as="geometry"/>
                </mxCell>
                <mxCell id="1vqe1WkpdczpjH7pua3z-55" value="" style="shape=image;html=1;verticalAlign=top;verticalLabelPosition=bottom;labelBackgroundColor=#ffffff;imageAspect=0;aspect=fixed;image=https://cdn4.iconfinder.com/data/icons/google-i-o-2016/512/google_firebase-2-128.png;imageBorder=#000000;" parent="1" vertex="1">
                    <mxGeometry x="620" y="720" width="82" height="82" as="geometry"/>
                </mxCell>
                <mxCell id="1vqe1WkpdczpjH7pua3z-57" value="" style="shape=image;html=1;verticalAlign=top;verticalLabelPosition=bottom;labelBackgroundColor=#ffffff;imageAspect=0;aspect=fixed;image=https://cdn4.iconfinder.com/data/icons/google-i-o-2016/512/google_firebase-2-128.png;imageBorder=#000000;" parent="1" vertex="1">
                    <mxGeometry x="708" y="-60" width="82" height="82" as="geometry"/>
                </mxCell>
            </root>
        </mxGraphModel>
    </diagram>
</mxfile>